<svg id="Ebene_1" xmlns="http://www.w3.org/2000/svg" width="89.934" height="38.507" viewBox="0 0 89.934 38.507"><style>.st0{fill:#91877b}.st1{fill:#005192}</style><g id="Ebene_1_1_"><path class="st1" d="M6.413 21.089v-6.492c0-.639-.153-1.167-.459-1.579-.306-.413-.759-.619-1.357-.619a1.7 1.7 0 0 0-.908.239c-.26.16-.48.355-.661.59a2.794 2.794 0 0 0-.41.729 1.947 1.947 0 0 0-.139.659v6.473H0V7.105h2.478v5.314c.092-.147.223-.317.39-.511.167-.192.374-.372.619-.539.246-.166.526-.309.839-.429.313-.121.668-.18 1.069-.18 1.079 0 1.931.299 2.558.898.625.599.938 1.418.938 2.457v6.972H6.413v.002zm11.606-7.931a15.49 15.49 0 0 0-.561-.349c-.252-.154-.565-.229-.938-.229-.4 0-.749.069-1.048.209-.301.14-.551.319-.75.54-.2.22-.35.47-.449.75a2.422 2.422 0 0 0-.151.838v6.172h-2.477V11.2h2.198l.119 1.417c.133-.197.28-.405.439-.618a3.68 3.68 0 0 1 .569-.6c.221-.186.482-.339.79-.458.305-.121.664-.18 1.077-.18.388 0 .757.076 1.108.229.354.153.604.284.751.39l-.677 1.778z"/><path class="st0" d="M23.274 0h.75v28.347h-.75zM38.56 21.063h-2.02l-2.88-4.3c-.453-.68-.88-1.22-1.28-1.62-.399-.4-.793-.6-1.18-.6h-.96v6.52h-1.68v-14h4.979c.533 0 1.05.077 1.55.23s.94.383 1.32.69.683.693.91 1.16c.227.467.34 1.007.34 1.62 0 .64-.124 1.183-.37 1.63a3.33 3.33 0 0 1-.96 1.1c-.393.287-.84.503-1.34.65s-1.01.24-1.53.28c.268.134.576.39.931.77.354.38.67.777.949 1.19l3.221 4.68zm-2.62-10.299c0-.4-.08-.75-.24-1.05-.16-.3-.374-.543-.64-.73a2.893 2.893 0 0 0-.931-.42 4.27 4.27 0 0 0-1.09-.14h-2.8v4.78h1.88c.72 0 1.327-.05 1.82-.15.493-.1.886-.253 1.18-.46.293-.207.503-.463.63-.77s.191-.66.191-1.06zm12.296 5.54h-6.58c0 .667.076 1.24.23 1.72.152.48.362.88.63 1.2.267.32.58.557.939.71.36.153.74.229 1.141.229.372 0 .695-.047.97-.14.273-.093.517-.213.729-.36.213-.146.4-.307.561-.48.16-.173.307-.333.439-.48l.641.98-.521.521c-.187.187-.41.359-.67.52s-.562.293-.91.4c-.347.106-.76.16-1.239.16-.827 0-1.523-.145-2.091-.431-.566-.286-1.029-.67-1.39-1.15s-.62-1.037-.78-1.67a8.176 8.176 0 0 1-.239-2.01c0-.613.075-1.227.229-1.84.153-.613.396-1.16.73-1.64.333-.48.76-.87 1.279-1.17.521-.3 1.153-.45 1.9-.45.732 0 1.356.127 1.87.38.513.253.927.59 1.24 1.01.312.42.54.91.68 1.47.14.56.21 1.14.21 1.74v.781zm-1.44-1.08c0-.96-.213-1.733-.64-2.32-.427-.586-1.067-.88-1.92-.88-.4 0-.76.09-1.08.27-.32.18-.59.42-.81.72-.221.3-.391.643-.511 1.03s-.18.78-.18 1.18h5.141zm13.01-6.761h-6.681v4.88h6.36v1.38h-6.36v6.34h-1.68v-14h8.36v1.4zm4.237 12.6h-1.5v-14h1.5v14zm11.026-4.759h-6.58c0 .667.076 1.24.23 1.72.152.48.362.88.63 1.2.267.32.58.557.939.71.36.153.74.229 1.141.229.372 0 .695-.047.97-.14.273-.093.517-.213.729-.36.213-.146.4-.307.561-.48.16-.173.307-.333.439-.48l.641.98-.521.521c-.187.187-.41.359-.67.52s-.562.293-.91.4c-.347.106-.76.16-1.239.16-.827 0-1.523-.145-2.091-.431-.566-.286-1.029-.67-1.39-1.15s-.62-1.037-.78-1.67a8.176 8.176 0 0 1-.239-2.01c0-.613.075-1.227.229-1.84.153-.613.396-1.16.73-1.64.333-.48.76-.87 1.279-1.17.521-.3 1.153-.45 1.9-.45.733 0 1.356.127 1.87.38.513.253.927.59 1.24 1.01.312.42.54.91.68 1.47.14.56.21 1.14.21 1.74v.781h.002zm-1.44-1.08c0-.96-.213-1.733-.64-2.32-.427-.586-1.067-.88-1.92-.88-.4 0-.76.09-1.08.27-.32.18-.59.42-.81.72-.221.3-.391.643-.511 1.03s-.18.78-.18 1.18h5.141zm12.144 5.839h-1.9l-2.76-4.24-2.82 4.24h-1.68l3.6-5.08-3.46-4.62h1.9l2.66 3.78 2.58-3.78h1.72l-3.44 4.62 3.6 5.08z"/><path d="M4.28 34.539c0 .465-.069.846-.208 1.145s-.313.535-.524.708-.44.292-.691.356a2.902 2.902 0 0 1-.704.096c-.235 0-.479-.032-.732-.096a1.785 1.785 0 0 1-.695-.356c-.21-.173-.385-.409-.521-.708S0 35.003 0 34.539V31.14h.672v3.592c0 .192.029.38.088.563.06.185.149.352.272.5.123.149.277.27.464.36.188.091.405.136.656.136.25 0 .468-.045.652-.136.184-.091.336-.21.455-.36.12-.149.208-.315.265-.5a1.92 1.92 0 0 0 .084-.563V31.14h.672v3.399zm4.719 2.201h-.6v-2.664c0-.32-.086-.557-.26-.709a.947.947 0 0 0-.645-.228.943.943 0 0 0-.456.108 1.154 1.154 0 0 0-.532.576.741.741 0 0 0-.067.275v2.641h-.608v-3.881h.544l.032.576c.101-.203.264-.378.488-.527.224-.15.512-.225.863-.225.373 0 .674.105.9.316.228.211.34.523.34.939v2.803zm4.622 0h-.488l-.096-.553a1.61 1.61 0 0 1-.428.397 1.93 1.93 0 0 1-.356.172 1.26 1.26 0 0 1-.432.072 1.48 1.48 0 0 1-.604-.129 1.409 1.409 0 0 1-.512-.388 1.975 1.975 0 0 1-.352-.656 2.955 2.955 0 0 1-.132-.932c0-.384.052-.707.155-.968.104-.262.237-.473.4-.633s.341-.272.536-.34c.194-.066.383-.1.563-.1.24 0 .455.059.645.172.188.113.354.309.492.58v-2.296h.607v5.602zm-.584-1.24v-1.32c0-.08-.024-.18-.076-.297a1.533 1.533 0 0 0-.212-.344 1.216 1.216 0 0 0-.332-.283.841.841 0 0 0-.436-.116.99.99 0 0 0-.532.136c-.147.092-.264.21-.352.359-.089.15-.152.32-.192.509s-.06.383-.06.58c0 .192.019.387.056.584.038.196.103.376.196.536.093.16.216.289.367.388.152.099.346.147.58.147a.883.883 0 0 0 .353-.075c.117-.052.224-.116.319-.196a.95.95 0 0 0 .232-.279.684.684 0 0 0 .089-.329zm5.061-.665h-2.633c0 .267.03.496.093.688.061.191.145.352.252.48a.966.966 0 0 0 .376.283c.144.062.296.092.456.092.148 0 .278-.019.388-.055.109-.037.207-.086.292-.145s.16-.123.224-.192l.177-.192.256.393-.208.208a1.554 1.554 0 0 1-1.128.432c-.331 0-.609-.058-.836-.173a1.56 1.56 0 0 1-.557-.46 1.853 1.853 0 0 1-.312-.668 3.268 3.268 0 0 1-.097-.804c0-.245.03-.491.093-.736a1.97 1.97 0 0 1 .292-.655c.133-.192.304-.349.512-.469.208-.119.461-.18.76-.18.293 0 .542.051.748.152.205.101.371.235.496.403.125.169.216.364.272.589.056.223.084.455.084.695v.314zm-.576-.432c0-.384-.085-.692-.256-.928-.171-.233-.428-.353-.769-.353a.876.876 0 0 0-.432.108c-.128.072-.236.168-.324.288s-.156.258-.204.412-.072.312-.072.472h2.057v.001zm4.095-1.56l-.232.544a2.483 2.483 0 0 0-.208-.128.52.52 0 0 0-.264-.072c-.155 0-.293.031-.416.096s-.227.148-.312.252a1.161 1.161 0 0 0-.264.733v2.473h-.607V32.86h.544l.032.592a1.371 1.371 0 0 1 .732-.687c.131-.053.279-.08.444-.08a.91.91 0 0 1 .344.061c.101.037.17.07.207.097zm5.179 3.897h-.745l-.921-3.072-.929 3.072h-.753l-1.146-3.881h.688l.864 3.32.92-3.072h.744l.912 3.072.855-3.32h.656l-1.145 3.881zm4.475-3.897l-.232.544a2.66 2.66 0 0 0-.208-.128.52.52 0 0 0-.264-.072c-.155 0-.293.031-.416.096s-.228.148-.312.252a1.162 1.162 0 0 0-.263.733v2.473h-.608V32.86h.545l.031.592a1.483 1.483 0 0 1 .389-.488c.098-.08.213-.146.344-.199s.279-.08.443-.08c.129 0 .243.02.345.061.1.037.169.07.206.097zm1.706-1.416c0 .107-.039.199-.116.279s-.169.121-.276.121a.384.384 0 0 1-.279-.121.385.385 0 0 1 0-.559.381.381 0 0 1 .555 0c.077.08.116.173.116.28zm-.088 5.313h-.608v-3.881h.608v3.881zm3.361-.026a1.941 1.941 0 0 1-.616.113c-.372 0-.644-.084-.812-.248-.168-.166-.252-.453-.252-.865V33.29h-.608v-.432h.608v-.977l.608-.199v1.176h.903v.432h-.903v2.328c0 .225.029.407.092.549.061.141.201.211.42.211.133 0 .288-.043.464-.127l.096.463zm1.68-5.287c0 .107-.039.199-.116.279s-.169.121-.276.121a.388.388 0 0 1-.28-.121.388.388 0 0 1 0-.559.385.385 0 0 1 .556 0c.077.08.116.173.116.28zm-.088 5.313h-.607v-3.881h.607v3.881zm4.646 0h-.6v-2.664c0-.32-.087-.557-.261-.709s-.388-.228-.644-.228a.943.943 0 0 0-.456.108 1.154 1.154 0 0 0-.532.576.741.741 0 0 0-.067.275v2.641h-.608v-3.881h.544l.032.576a1.38 1.38 0 0 1 .487-.527c.225-.15.513-.225.864-.225.373 0 .673.105.9.316.227.211.34.523.34.939v2.803zm4.638-.24c0 .283-.029.545-.088.787-.059.243-.156.455-.292.637s-.317.324-.548.428c-.229.104-.512.156-.848.156-.177 0-.334-.014-.477-.043a1.697 1.697 0 0 1-.647-.272 1.092 1.092 0 0 1-.188-.164l.256-.448c.037.037.086.084.148.137a1.381 1.381 0 0 0 .909.337c.234 0 .428-.037.58-.108a.865.865 0 0 0 .359-.312 1.37 1.37 0 0 0 .185-.492c.034-.191.052-.405.052-.641v-.408c-.032.06-.08.125-.145.201a1.216 1.216 0 0 1-.239.211c-.097.066-.207.123-.332.168s-.266.068-.42.068c-.24 0-.461-.037-.664-.111-.203-.075-.38-.193-.532-.356s-.271-.371-.356-.624-.128-.562-.128-.924c0-.357.053-.665.156-.924.104-.26.239-.471.404-.637.165-.164.346-.287.544-.363.196-.077.389-.116.576-.116.256 0 .479.058.672.172.191.115.356.308.496.58l.031-.576h.536V36.5zm-.584-1.097v-1.224c0-.096-.021-.204-.063-.324s-.107-.232-.192-.34a1.112 1.112 0 0 0-.315-.268.86.86 0 0 0-.437-.108c-.208 0-.388.045-.54.136-.152.092-.277.21-.376.359-.099.15-.17.32-.216.509a2.494 2.494 0 0 0-.068.58c0 .187.02.374.057.56.038.188.103.354.195.5.094.147.216.268.368.36.152.094.345.14.58.14.149 0 .287-.029.412-.088s.232-.132.32-.22.155-.183.204-.284a.688.688 0 0 0 .071-.288zm6.784 1.337h-.568a4.683 4.683 0 0 1-.023-.277 6.925 6.925 0 0 0-.024-.283 1.517 1.517 0 0 1-1.272.649c-.336 0-.612-.093-.828-.277-.216-.184-.324-.443-.324-.779 0-.234.059-.436.172-.604.114-.168.269-.308.46-.416.192-.109.415-.191.668-.244s.52-.086.796-.096l.312-.009v-.399c0-.103-.015-.205-.044-.309s-.076-.199-.141-.283a.733.733 0 0 0-.247-.209.81.81 0 0 0-.376-.08 1.415 1.415 0 0 0-.93.34c-.063.057-.115.104-.151.141l-.257-.385a1.27 1.27 0 0 1 .196-.184c.083-.063.181-.121.296-.172a2.086 2.086 0 0 1 .868-.18c.454 0 .796.117 1.028.352.231.235.348.579.348 1.032v2.12c0 .025.001.064.004.116l.008.159c.002.057.008.109.013.16s.01.089.016.117zm-.632-1.106v-.815l-.312.009c-.219.004-.419.027-.6.067s-.337.099-.468.176-.232.173-.305.288a.739.739 0 0 0-.107.396c0 .164.06.312.18.439.12.129.316.192.588.192.102 0 .212-.021.332-.063a1.344 1.344 0 0 0 .588-.412.44.44 0 0 0 .104-.277zm5.143 1.106h-.504l-.063-.664a1.312 1.312 0 0 1-.484.527c-.227.148-.508.225-.844.225-.368 0-.669-.105-.904-.316s-.352-.524-.352-.94V32.86h.607v2.576c0 .32.087.559.261.712a.916.916 0 0 0 .628.231.902.902 0 0 0 .443-.107 1.19 1.19 0 0 0 .532-.58.743.743 0 0 0 .072-.279V32.86h.607v3.88h.001zm3.306-.026a2.068 2.068 0 0 1-.616.113c-.373 0-.645-.084-.812-.248-.168-.166-.252-.453-.252-.865V33.29h-.607v-.432h.607v-.977l.608-.199v1.176h.904v.432h-.904v2.328c0 .225.03.407.092.549.062.141.201.211.42.211.133 0 .288-.043.464-.127l.096.463zm4.068-1.991c0 .288-.035.56-.104.815-.07.256-.175.48-.316.672a1.47 1.47 0 0 1-.54.453 1.717 1.717 0 0 1-.768.164c-.582 0-1.016-.182-1.3-.545-.285-.363-.429-.883-.429-1.56 0-.272.035-.532.104-.78s.174-.465.315-.652c.142-.187.32-.334.536-.443s.474-.164.772-.164c.298 0 .557.048.775.145.22.096.398.231.54.407.142.177.245.392.312.644.07.253.103.535.103.844zm-.616 0a2.97 2.97 0 0 0-.061-.608 1.593 1.593 0 0 0-.192-.504.994.994 0 0 0-.344-.344c-.141-.085-.312-.128-.516-.128s-.374.047-.512.14a1.133 1.133 0 0 0-.341.364c-.088.149-.151.319-.191.508s-.061.38-.061.572c0 .239.021.46.064.659a1.7 1.7 0 0 0 .196.525.957.957 0 0 0 .344.348.978.978 0 0 0 .5.123.95.95 0 0 0 .544-.147c.144-.099.257-.226.34-.38s.141-.331.176-.527c.037-.198.054-.399.054-.601zm7.274 2.017h-.607v-2.664c0-.32-.082-.557-.244-.709s-.359-.228-.588-.228a.804.804 0 0 0-.421.108 1.178 1.178 0 0 0-.492.576.77.77 0 0 0-.064.275v2.641h-.6v-2.664c0-.32-.082-.557-.244-.709s-.358-.228-.588-.228a.8.8 0 0 0-.42.108 1.178 1.178 0 0 0-.493.576.792.792 0 0 0-.064.275v2.641h-.607v-3.881h.544l.032.576c.09-.203.243-.378.46-.527.216-.15.486-.225.812-.225.304 0 .548.074.732.225.184.148.311.338.38.567.038-.097.093-.19.168-.284a1.353 1.353 0 0 1 .656-.44 1.54 1.54 0 0 1 .479-.068c.352 0 .635.105.848.316.214.211.32.523.32.939v2.804h.001zm4.139 0h-.568a4.743 4.743 0 0 1-.024-.277 9.043 9.043 0 0 0-.023-.283 1.52 1.52 0 0 1-1.273.649c-.336 0-.612-.093-.828-.277-.216-.184-.324-.443-.324-.779 0-.234.059-.436.173-.604.113-.168.268-.308.46-.416.191-.109.415-.191.668-.244s.519-.086.796-.096l.312-.009v-.399c0-.103-.015-.205-.044-.309a.816.816 0 0 0-.14-.283.736.736 0 0 0-.248-.209.81.81 0 0 0-.376-.08 1.415 1.415 0 0 0-.929.34 3.817 3.817 0 0 0-.152.141l-.256-.385c.048-.059.113-.119.196-.184.083-.063.181-.121.296-.172a2.086 2.086 0 0 1 .867-.18c.454 0 .797.117 1.028.352.232.235.348.579.348 1.032v2.12c0 .025.002.064.005.116l.008.159a2.493 2.493 0 0 0 .028.277zm-.632-1.106v-.815l-.312.009a3.06 3.06 0 0 0-.601.067c-.181.04-.337.099-.468.176s-.231.173-.304.288-.108.247-.108.396c0 .164.061.312.181.439.119.129.315.192.588.192.101 0 .212-.021.332-.063a1.362 1.362 0 0 0 .588-.412.44.44 0 0 0 .104-.277zm3.842 1.08a2.068 2.068 0 0 1-.615.113c-.373 0-.645-.084-.812-.248-.168-.166-.252-.453-.252-.865V33.29h-.609v-.432h.607v-.977l.608-.199v1.176h.903v.432h-.903v2.328c0 .225.029.407.092.549.061.141.201.211.42.211.133 0 .288-.043.464-.127l.097.463zm1.678-5.287c0 .107-.039.199-.116.279s-.169.121-.276.121c-.105 0-.199-.041-.279-.121s-.12-.172-.12-.279c0-.106.04-.2.12-.28a.383.383 0 0 1 .555 0c.078.08.116.173.116.28zm-.087 5.313h-.608v-3.881h.608v3.881zm4.731-2.017c0 .288-.035.56-.104.815-.07.256-.175.48-.316.672a1.478 1.478 0 0 1-.54.453 1.717 1.717 0 0 1-.768.164c-.582 0-1.016-.182-1.3-.545-.285-.363-.429-.883-.429-1.56 0-.272.035-.532.104-.78a1.91 1.91 0 0 1 .315-.652c.142-.187.32-.334.536-.443s.474-.164.772-.164c.298 0 .557.048.775.145.22.096.398.231.54.407.142.177.245.392.312.644.069.253.103.535.103.844zm-.617 0c0-.214-.02-.416-.06-.608-.04-.191-.104-.359-.192-.504s-.203-.259-.344-.344-.312-.128-.516-.128-.374.047-.513.14c-.138.094-.252.215-.34.364s-.151.319-.191.508-.061.38-.061.572c0 .239.021.46.064.659.042.201.107.375.195.525a.967.967 0 0 0 .345.348.978.978 0 0 0 .5.123.95.95 0 0 0 .544-.147c.144-.099.257-.226.34-.38s.141-.331.176-.527c.036-.198.053-.399.053-.601zm5.01 2.017h-.601v-2.664c0-.32-.086-.557-.26-.709s-.388-.228-.644-.228a.94.94 0 0 0-.456.108 1.154 1.154 0 0 0-.532.576.745.745 0 0 0-.068.275v2.641h-.607v-3.881h.544l.031.576c.102-.203.265-.378.488-.527.225-.15.512-.225.864-.225.373 0 .673.105.899.316.228.211.341.523.341.939v2.803z"/></g></svg>