<?xml version="1.0" encoding="UTF-8"?><svg xmlns="http://www.w3.org/2000/svg" viewBox="0 0 561.26 170.079"><g id="a"><rect x="-.038" width="561.336" height="170.079" style="fill:none;"/></g><g id="b"><path d="m56.655,113.386v-56.711h9.259v23.726h28.769v-23.726h9.259v56.711h-9.259v-25.049h-28.769v25.049h-9.259Z"/><path d="m123.959,114.378c-1.378,0-2.866-.165-4.464-.496-1.599-.33-3.1-.937-4.506-1.819-1.405-.881-2.55-2.108-3.431-3.679-.882-1.571-1.323-3.623-1.323-6.159,0-2.976.688-5.428,2.067-7.358,1.377-1.928,3.307-3.443,5.787-4.547,2.48-1.102,5.442-1.872,8.887-2.315,3.443-.44,7.205-.661,11.284-.661v-4.299c0-1.432-.235-2.7-.703-3.803-.469-1.102-1.323-1.956-2.563-2.563-1.24-.605-3.018-.909-5.332-.909s-4.121.289-5.415.868c-1.295.579-2.205,1.296-2.728,2.15-.524.855-.785,1.777-.785,2.769v1.24h-8.267c-.055-.275-.083-.55-.083-.826v-.992c0-2.59.73-4.78,2.191-6.572,1.46-1.79,3.514-3.155,6.159-4.092,2.645-.937,5.704-1.406,9.176-1.406,3.747,0,6.874.538,9.383,1.612,2.507,1.075,4.394,2.604,5.663,4.588,1.267,1.984,1.901,4.382,1.901,7.192v22.073c0,1.048.261,1.792.785,2.232.523.442,1.143.661,1.86.661h2.976v5.787c-.661.277-1.488.55-2.48.827-.992.275-2.15.414-3.472.414-1.488,0-2.742-.263-3.761-.786-1.021-.523-1.848-1.267-2.481-2.232-.634-.963-1.062-2.052-1.281-3.266h-.496c-.992,1.269-2.191,2.385-3.596,3.348-1.406.965-3.018,1.709-4.836,2.232s-3.858.785-6.117.785Zm2.397-7.109c1.708,0,3.293-.261,4.753-.785,1.46-.523,2.714-1.267,3.762-2.232,1.047-.964,1.873-2.121,2.48-3.472.606-1.35.91-2.824.91-4.423v-2.893c-3.803,0-7.138.221-10.003.661-2.866.442-5.098,1.254-6.696,2.439-1.599,1.186-2.397,2.825-2.397,4.919,0,1.268.275,2.329.827,3.182.55.855,1.377,1.503,2.48,1.943,1.101.442,2.397.661,3.885.661Z"/><path d="m156.414,113.386v-43.484h7.11l.744,6.2h.579c1.046-1.598,2.286-2.921,3.72-3.968,1.432-1.046,3.017-1.846,4.753-2.397,1.736-.551,3.651-.827,5.746-.827,2.756,0,5.18.483,7.275,1.447,2.094.965,3.733,2.521,4.919,4.671,1.185,2.15,1.777,5.043,1.777,8.681v29.678h-8.598v-28.355c0-1.654-.207-3.031-.62-4.134-.414-1.101-1.007-1.983-1.778-2.645-.772-.661-1.682-1.129-2.728-1.405-1.048-.275-2.205-.413-3.472-.413-1.984,0-3.79.483-5.415,1.446-1.626.965-2.935,2.302-3.927,4.009-.992,1.709-1.488,3.721-1.488,6.035v25.462h-8.598Z"/><path d="m200.922,113.386v-43.484h7.11l.744,6.2h.579c1.046-1.598,2.286-2.921,3.72-3.968,1.432-1.046,3.017-1.846,4.753-2.397,1.736-.551,3.651-.827,5.746-.827,2.756,0,5.18.483,7.275,1.447,2.094.965,3.733,2.521,4.919,4.671,1.184,2.15,1.777,5.043,1.777,8.681v29.678h-8.598v-28.355c0-1.654-.207-3.031-.62-4.134-.414-1.101-1.007-1.983-1.778-2.645-.772-.661-1.682-1.129-2.728-1.405-1.048-.275-2.205-.413-3.472-.413-1.984,0-3.79.483-5.415,1.446-1.626.965-2.935,2.302-3.927,4.009-.992,1.709-1.488,3.721-1.488,6.035v25.462h-8.598Z"/><path d="m264.272,114.378c-4.52,0-8.337-.814-11.45-2.438-3.114-1.625-5.456-4.119-7.027-7.482-1.571-3.361-2.356-7.632-2.356-12.814,0-5.235.785-9.52,2.356-12.855,1.571-3.334,3.912-5.814,7.027-7.44,3.113-1.625,6.93-2.439,11.45-2.439,4.63,0,8.487.814,11.574,2.439,3.085,1.626,5.415,4.106,6.984,7.44,1.571,3.335,2.357,7.62,2.357,12.855,0,5.181-.786,9.453-2.357,12.814-1.57,3.363-3.899,5.857-6.984,7.482-3.088,1.625-6.945,2.438-11.574,2.438Zm0-7.109c2.755,0,5.014-.537,6.779-1.612,1.763-1.075,3.071-2.714,3.927-4.919.854-2.203,1.28-4.987,1.28-8.35v-1.488c0-3.361-.427-6.145-1.28-8.349-.856-2.204-2.164-3.845-3.927-4.919-1.765-1.075-4.024-1.612-6.779-1.612-2.701,0-4.933.537-6.696,1.612-1.765,1.074-3.073,2.715-3.927,4.919-.855,2.205-1.282,4.988-1.282,8.349v1.488c0,3.363.427,6.146,1.282,8.35.854,2.205,2.162,3.844,3.927,4.919,1.763,1.075,3.996,1.612,6.696,1.612Z"/><path d="m301.671,113.386l-16.121-43.484h9.011l7.522,20.749c.331.992.745,2.274,1.241,3.845.496,1.57.992,3.182,1.488,4.836.497,1.653.937,3.141,1.323,4.465h.414c.33-1.267.729-2.714,1.198-4.34.468-1.625.951-3.237,1.447-4.836.497-1.598.937-2.921,1.323-3.968l7.44-20.749h8.764l-16.204,43.484h-8.845Z"/><path d="m347.419,114.378c-4.465,0-8.198-.814-11.202-2.438-3.004-1.625-5.278-4.119-6.82-7.482-1.543-3.361-2.315-7.632-2.315-12.814,0-5.235.772-9.52,2.315-12.855,1.542-3.334,3.83-5.814,6.861-7.44,3.031-1.625,6.806-2.439,11.326-2.439,4.134,0,7.592.785,10.375,2.356,2.783,1.571,4.891,3.956,6.325,7.151,1.432,3.197,2.15,7.221,2.15,12.07v3.307h-30.505c.11,3.087.579,5.663,1.406,7.729.826,2.067,2.08,3.583,3.762,4.547,1.68.965,3.815,1.447,6.407,1.447,1.598,0,3.03-.206,4.298-.62,1.267-.414,2.343-1.019,3.224-1.819.881-.798,1.571-1.763,2.068-2.894.496-1.129.744-2.41.744-3.844h8.432c0,2.591-.442,4.878-1.324,6.861-.881,1.984-2.163,3.652-3.844,5.002-1.682,1.35-3.678,2.384-5.993,3.1s-4.878,1.074-7.688,1.074Zm-11.326-26.867h21.329c0-2.15-.235-3.955-.703-5.415-.469-1.46-1.144-2.658-2.025-3.596-.882-.937-1.93-1.612-3.142-2.025-1.213-.414-2.591-.62-4.133-.62-2.315,0-4.286.413-5.911,1.239-1.625.827-2.88,2.109-3.761,3.844-.882,1.736-1.435,3.927-1.654,6.573Z"/><path d="m372.731,113.386v-43.484h7.11l.744,7.027h.497c.496-1.377,1.143-2.672,1.942-3.885.798-1.212,1.846-2.203,3.142-2.976,1.294-.772,2.879-1.157,4.753-1.157.881,0,1.666.083,2.356.248.688.165,1.226.303,1.612.413v8.101h-2.892c-1.765,0-3.321.277-4.671.827-1.351.551-2.481,1.364-3.39,2.438-.909,1.075-1.571,2.385-1.983,3.927-.414,1.544-.621,3.28-.621,5.208v23.313h-8.598Z"/><path d="m412.824,113.386v-56.711h29.844c4.022,0,7.358.717,10.003,2.15,2.645,1.433,4.63,3.43,5.952,5.993,1.323,2.563,1.983,5.553,1.983,8.969,0,3.803-.855,7.109-2.562,9.921-1.71,2.81-4.134,4.877-7.275,6.2l11.821,23.478h-10.085l-10.747-21.907h-19.675v21.907h-9.259Zm9.259-29.678h19.84c2.977,0,5.277-.881,6.904-2.646,1.624-1.763,2.438-4.216,2.438-7.358,0-1.928-.359-3.568-1.074-4.919-.717-1.35-1.765-2.383-3.142-3.1-1.378-.716-3.086-1.075-5.125-1.075h-19.84v19.097Z"/><path d="m485.911,114.378c-4.465,0-8.198-.814-11.202-2.438-3.004-1.625-5.278-4.119-6.82-7.482-1.544-3.361-2.315-7.632-2.315-12.814,0-5.235.771-9.52,2.315-12.855,1.542-3.334,3.829-5.814,6.861-7.44,3.03-1.625,6.806-2.439,11.326-2.439,4.133,0,7.591.785,10.375,2.356,2.783,1.571,4.89,3.956,6.324,7.151,1.433,3.197,2.15,7.221,2.15,12.07v3.307h-30.504c.11,3.087.579,5.663,1.405,7.729.827,2.067,2.08,3.583,3.762,4.547,1.681.965,3.816,1.447,6.407,1.447,1.598,0,3.031-.206,4.299-.62,1.267-.414,2.341-1.019,3.224-1.819.88-.798,1.571-1.763,2.067-2.894.496-1.129.744-2.41.744-3.844h8.432c0,2.591-.441,4.878-1.323,6.861-.882,1.984-2.164,3.652-3.844,5.002-1.682,1.35-3.68,2.384-5.994,3.1-2.314.716-4.877,1.074-7.687,1.074Zm-11.326-26.867h21.328c0-2.15-.235-3.955-.703-5.415-.468-1.46-1.144-2.658-2.024-3.596-.882-.937-1.93-1.612-3.142-2.025-1.213-.414-2.591-.62-4.133-.62-2.315,0-4.286.413-5.911,1.239-1.626.827-2.88,2.109-3.762,3.844-.882,1.736-1.433,3.927-1.653,6.573Z"/></g></svg>