<?xml version="1.0" encoding="UTF-8"?>
<svg xmlns="http://www.w3.org/2000/svg" viewBox="0 0 44 44">
  <defs>
    <style>
      .cls-1 {
        fill: none;
      }

      .cls-1, .cls-2 {
        stroke-width: 0px;
      }

      .cls-2 {
        fill: #fff;
      }
    </style>
  </defs>
  <g id="Box">
    <rect class="cls-1" width="44" height="44"/>
  </g>
  <g id="Icons">
    <g>
      <path class="cls-2" d="m14.47,38h-2.66c-2.23,0-4.04-1.81-4.04-4.04V10.04c0-2.23,1.81-4.04,4.04-4.04h2.66c1.08,0,2.1.42,2.86,1.19.76.76,1.18,1.78,1.18,2.86v13.28c-.01.81.3,1.58.88,2.15.57.58,1.34.89,2.15.89h3.11v1h-3.11c-1.08,0-2.1-.42-2.86-1.19-.76-.76-1.18-1.78-1.18-2.86v-13.28c.01-.81-.3-1.58-.88-2.15-.57-.58-1.34-.89-2.15-.89h-2.66c-1.68,0-3.04,1.37-3.04,3.04v23.91c0,1.68,1.37,3.04,3.04,3.04h2.66c.81,0,1.58-.32,2.15-.89.57-.58.89-1.34.89-2.15v-6.64h1v6.64c0,1.08-.42,2.1-1.18,2.86-.76.76-1.78,1.19-2.86,1.19Z"/>
      <path class="cls-2" d="m32.19,38h-2.66c-1.08,0-2.1-.42-2.86-1.19-.76-.76-1.18-1.78-1.18-2.86v-13.28c.01-.81-.3-1.58-.88-2.15-.57-.58-1.34-.89-2.15-.89h-3.11v-1h3.11c1.08,0,2.1.42,2.86,1.19s1.18,1.78,1.18,2.86v13.28c-.01.81.3,1.58.88,2.15.57.58,1.34.89,2.15.89h2.66c1.68,0,3.04-1.37,3.04-3.04V10.04c0-1.68-1.37-3.04-3.04-3.04h-2.66c-.81,0-1.58.32-2.15.89-.58.58-.89,1.34-.89,2.16v6.64h-1v-6.64c0-1.08.42-2.1,1.18-2.86.76-.76,1.78-1.19,2.86-1.19h2.66c2.23,0,4.04,1.81,4.04,4.04v23.91c0,2.23-1.81,4.04-4.04,4.04Z"/>
    </g>
  </g>
</svg>