<svg width="200" height="200" viewBox="0 0 200 200" fill="none" xmlns="http://www.w3.org/2000/svg">
<rect y="0.00012207" width="200" height="200" rx="30" fill="white"/>
<g clip-path="url(#clip0_6411_7634)">
<path d="M177.109 200H22.8909C10.25 200 0 189.75 0 177.109V22.891C0 10.2501 10.25 0.00012207 22.8909 0.00012207H177.109C189.75 0.00012207 200 10.2501 200 22.891V177.109C200 189.75 189.75 200 177.109 200Z" fill="#003C70"/>
<path d="M63.9364 173.864H55.8682C43.8909 173.864 34.1454 164.118 34.1454 152.141V47.8592C34.1454 35.8819 43.8909 26.1365 55.8682 26.1365H63.9545C69.7591 26.1365 75.2227 28.4001 79.3227 32.5047C83.4227 36.6092 85.6818 42.0729 85.6773 47.8819L85.6273 104C85.6273 106.773 86.7 109.373 88.6591 111.336C90.6182 113.296 93.2182 114.373 95.9909 114.373H108.009V125.736H95.9909C90.1818 125.736 84.7227 123.473 80.6227 119.368C76.5182 115.259 74.2636 109.8 74.2682 103.991L74.3182 47.8729C74.3182 45.1047 73.2454 42.5001 71.2864 40.541C69.3273 38.5774 66.7227 37.5001 63.9545 37.5001H55.8682C50.1545 37.5001 45.5091 42.1456 45.5091 47.8592V152.137C45.5091 157.85 50.1545 162.496 55.8682 162.496H63.9364C66.7091 162.496 69.3136 161.418 71.2727 159.455C73.2318 157.491 74.3045 154.887 74.3 152.118L74.25 124.068L85.6136 124.05L85.6636 152.1C85.6727 157.905 83.4182 163.368 79.3136 167.482C75.2091 171.6 69.75 173.864 63.9364 173.864Z" fill="white"/>
<path d="M144.105 173.864H136.018C130.214 173.864 124.75 171.6 120.65 167.496C116.545 163.386 114.291 157.927 114.295 152.123L114.345 96.0001C114.35 93.2319 113.273 90.6274 111.314 88.6683C109.355 86.7092 106.755 85.6319 103.986 85.6319H91.9682V74.2683H103.986C109.791 74.2683 115.255 76.5319 119.355 80.641C123.459 84.7456 125.714 90.2047 125.709 96.0138L125.659 152.136C125.655 154.905 126.732 157.509 128.691 159.464C130.65 161.427 133.25 162.505 136.018 162.505H144.105C149.818 162.505 154.464 157.859 154.464 152.146V47.8592C154.464 42.1456 149.818 37.5001 144.105 37.5001H136.032C133.264 37.5001 130.659 38.5774 128.705 40.541C126.745 42.5001 125.668 45.1092 125.673 47.8819L125.723 75.9274L114.359 75.9456L114.309 47.9001C114.3 42.091 116.555 36.6274 120.659 32.5138C124.764 28.4047 130.223 26.141 136.032 26.141H144.105C156.086 26.141 165.827 35.8865 165.827 47.8638V152.141C165.827 164.118 156.086 173.864 144.105 173.864Z" fill="#77ACFF"/>
</g>
<defs>
<clipPath id="clip0_6411_7634">
<rect width="200" height="200" fill="white"/>
</clipPath>
</defs>
</svg>
